<svg width="85" height="44" viewBox="0 0 85 44" fill="none" xmlns="http://www.w3.org/2000/svg">
<path d="M25.6602 13.3242V23.8359C25.2266 24.3164 24.5586 24.832 23.6562 25.3828C22.7656 25.9219 21.6406 26.3848 20.2812 26.7715C18.9219 27.1582 17.3223 27.3516 15.4824 27.3516C13.7832 27.3516 12.2422 27.082 10.8594 26.543C9.47656 25.9922 8.28711 25.1895 7.29102 24.1348C6.30664 23.0684 5.54492 21.7676 5.00586 20.2324C4.47852 18.6855 4.21484 16.916 4.21484 14.9238V13.5C4.21484 11.5078 4.48438 9.73828 5.02344 8.19141C5.5625 6.64453 6.31836 5.34375 7.29102 4.28906C8.27539 3.22266 9.42969 2.41406 10.7539 1.86328C12.0898 1.3125 13.5547 1.03711 15.1484 1.03711C17.5039 1.03711 19.4199 1.41211 20.8965 2.16211C22.373 2.90039 23.4922 3.92578 24.2539 5.23828C25.0156 6.53906 25.4785 8.04492 25.6426 9.75586H19.7188C19.6016 8.91211 19.3789 8.19727 19.0508 7.61133C18.7344 7.01367 18.2773 6.5625 17.6797 6.25781C17.082 5.94141 16.3086 5.7832 15.3594 5.7832C14.6211 5.7832 13.9473 5.94141 13.3379 6.25781C12.7402 6.57422 12.2305 7.05469 11.8086 7.69922C11.3867 8.33203 11.0586 9.12891 10.8242 10.0898C10.6016 11.0508 10.4902 12.1758 10.4902 13.4648V14.9238C10.4902 16.2012 10.5957 17.3203 10.8066 18.2812C11.0293 19.2422 11.3574 20.0449 11.791 20.6895C12.2363 21.3223 12.7988 21.8027 13.4785 22.1309C14.1699 22.4473 14.9844 22.6055 15.9219 22.6055C16.5781 22.6055 17.1406 22.5527 17.6094 22.4473C18.0781 22.3301 18.4648 22.1895 18.7695 22.0254C19.0859 21.8496 19.3262 21.6855 19.4902 21.5332V17.5605H15.2012V13.3242H25.6602ZM43.8184 18.334H49.9707C49.8887 20.1152 49.4082 21.6855 48.5293 23.0449C47.6504 24.4043 46.4316 25.4648 44.873 26.2266C43.3262 26.9766 41.498 27.3516 39.3887 27.3516C37.6777 27.3516 36.1484 27.0645 34.8008 26.4902C33.4648 25.916 32.3281 25.0898 31.3906 24.0117C30.4648 22.9336 29.7559 21.627 29.2637 20.0918C28.7832 18.5566 28.543 16.8281 28.543 14.9062V13.5176C28.543 11.5957 28.7949 9.86719 29.2988 8.33203C29.8145 6.78516 30.541 5.47266 31.4785 4.39453C32.4277 3.30469 33.5645 2.47266 34.8887 1.89844C36.2129 1.32422 37.6836 1.03711 39.3008 1.03711C41.5273 1.03711 43.4082 1.43555 44.9434 2.23242C46.4785 3.0293 47.668 4.125 48.5117 5.51953C49.3555 6.90234 49.8535 8.47852 50.0059 10.248H43.8535C43.8301 9.28711 43.666 8.48438 43.3613 7.83984C43.0566 7.18359 42.5762 6.69141 41.9199 6.36328C41.2637 6.03516 40.3906 5.87109 39.3008 5.87109C38.5391 5.87109 37.877 6.01172 37.3145 6.29297C36.752 6.57422 36.2832 7.01953 35.9082 7.62891C35.5332 8.23828 35.252 9.0293 35.0645 10.002C34.8887 10.9629 34.8008 12.123 34.8008 13.4824V14.9062C34.8008 16.2656 34.8828 17.4258 35.0469 18.3867C35.2109 19.3477 35.4746 20.1328 35.8379 20.7422C36.2012 21.3516 36.6699 21.8027 37.2441 22.0957C37.8301 22.377 38.5449 22.5176 39.3887 22.5176C40.3262 22.5176 41.1172 22.3711 41.7617 22.0781C42.4062 21.7734 42.9043 21.3164 43.2559 20.707C43.6074 20.0859 43.7949 19.2949 43.8184 18.334ZM57.916 0V2.88281C57.916 3.66797 57.7578 4.4707 57.4414 5.29102C57.1367 6.11133 56.7383 6.88477 56.2461 7.61133C55.7656 8.32617 55.25 8.92969 54.6992 9.42188L52.0977 8.01562C52.4727 7.34766 52.8125 6.60938 53.1172 5.80078C53.4336 4.98047 53.5918 4.00195 53.5918 2.86523V0H57.916ZM74.8262 20.1973C74.8262 19.7988 74.7676 19.4414 74.6504 19.125C74.5332 18.7969 74.3164 18.4922 74 18.2109C73.6836 17.9297 73.2266 17.6484 72.6289 17.3672C72.043 17.0742 71.2695 16.7695 70.3086 16.4531C69.1836 16.0781 68.0996 15.6562 67.0566 15.1875C66.0137 14.707 65.082 14.1504 64.2617 13.5176C63.4414 12.873 62.791 12.123 62.3105 11.2676C61.8301 10.4004 61.5898 9.39258 61.5898 8.24414C61.5898 7.14258 61.8359 6.15234 62.3281 5.27344C62.8203 4.38281 63.5059 3.62695 64.3848 3.00586C65.2754 2.37305 66.3184 1.89258 67.5137 1.56445C68.709 1.22461 70.0156 1.05469 71.4336 1.05469C73.3086 1.05469 74.9609 1.38281 76.3906 2.03906C77.832 2.68359 78.957 3.60352 79.7656 4.79883C80.5859 5.98242 80.9961 7.38281 80.9961 9H74.8613C74.8613 8.35547 74.7266 7.78711 74.457 7.29492C74.1992 6.80273 73.8066 6.41602 73.2793 6.13477C72.752 5.85352 72.0898 5.71289 71.293 5.71289C70.5195 5.71289 69.8691 5.83008 69.3418 6.06445C68.8145 6.29883 68.416 6.61523 68.1465 7.01367C67.877 7.40039 67.7422 7.82812 67.7422 8.29688C67.7422 8.68359 67.8477 9.03516 68.0586 9.35156C68.2812 9.65625 68.5918 9.94336 68.9902 10.2129C69.4004 10.4824 69.8926 10.7402 70.4668 10.9863C71.0527 11.2324 71.709 11.4727 72.4355 11.707C73.7949 12.1406 75.002 12.627 76.0566 13.166C77.123 13.6934 78.0195 14.2969 78.7461 14.9766C79.4844 15.6445 80.041 16.4062 80.416 17.2617C80.8027 18.1172 80.9961 19.084 80.9961 20.1621C80.9961 21.3105 80.7734 22.3301 80.3281 23.2207C79.8828 24.1113 79.2441 24.8672 78.4121 25.4883C77.5801 26.0977 76.584 26.5605 75.4238 26.877C74.2637 27.1934 72.9688 27.3516 71.5391 27.3516C70.2266 27.3516 68.9316 27.1875 67.6543 26.8594C66.3887 26.5195 65.2402 26.0039 64.209 25.3125C63.1777 24.6094 62.3516 23.7129 61.7305 22.623C61.1211 21.5215 60.8164 20.2148 60.8164 18.7031H67.0039C67.0039 19.4531 67.1035 20.0859 67.3027 20.6016C67.502 21.1172 67.7949 21.5332 68.1816 21.8496C68.5684 22.1543 69.043 22.377 69.6055 22.5176C70.168 22.6465 70.8125 22.7109 71.5391 22.7109C72.3242 22.7109 72.957 22.5996 73.4375 22.377C73.918 22.1426 74.2695 21.8379 74.4922 21.4629C74.7148 21.0762 74.8262 20.6543 74.8262 20.1973ZM4.99805 35.1387L2.57129 43H-0.00585938L3.65137 33.0469H5.28516L4.99805 35.1387ZM7.00781 43L4.57422 35.1387L4.25977 33.0469H5.91406L9.5918 43H7.00781ZM6.91211 39.2881V41.1406H1.80566V39.2881H6.91211ZM10.3232 33.0469H14.2402C15.0059 33.0469 15.6712 33.1608 16.2363 33.3887C16.8014 33.6165 17.2367 33.9538 17.542 34.4004C17.8519 34.847 18.0068 35.3984 18.0068 36.0547C18.0068 36.6243 17.918 37.1006 17.7402 37.4834C17.5625 37.8662 17.3141 38.1829 16.9951 38.4336C16.6807 38.6797 16.3138 38.8825 15.8945 39.042L15.1084 39.4863H11.8203L11.8066 37.6338H14.2402C14.5456 37.6338 14.7985 37.5791 14.999 37.4697C15.1995 37.3604 15.3499 37.2054 15.4502 37.0049C15.555 36.7998 15.6074 36.556 15.6074 36.2734C15.6074 35.9863 15.555 35.7402 15.4502 35.5352C15.3454 35.3301 15.1904 35.1729 14.9854 35.0635C14.7848 34.9541 14.5365 34.8994 14.2402 34.8994H12.7227V43H10.3232V33.0469ZM15.7715 43L13.5703 38.5977L16.1133 38.584L18.3418 42.8975V43H15.7715ZM23.9336 33.0469V43H21.5342V33.0469H23.9336ZM26.9277 33.0469V34.8994H18.6084V33.0469H26.9277ZM36.1494 40.3545C36.1494 40.1995 36.1266 40.0605 36.0811 39.9375C36.0355 39.8099 35.9512 39.6914 35.8281 39.582C35.7051 39.4727 35.5273 39.3633 35.2949 39.2539C35.0671 39.14 34.7663 39.0215 34.3926 38.8984C33.9551 38.7526 33.5335 38.5885 33.1279 38.4062C32.7223 38.2194 32.36 38.0029 32.041 37.7568C31.722 37.5062 31.4691 37.2145 31.2822 36.8818C31.0954 36.5446 31.002 36.1527 31.002 35.7061C31.002 35.2777 31.0977 34.8926 31.2891 34.5508C31.4805 34.2044 31.7471 33.9105 32.0889 33.6689C32.4352 33.4229 32.8408 33.236 33.3057 33.1084C33.7705 32.9762 34.2786 32.9102 34.8301 32.9102C35.5592 32.9102 36.2018 33.0378 36.7578 33.293C37.3184 33.5436 37.7559 33.9014 38.0703 34.3662C38.3893 34.8265 38.5488 35.3711 38.5488 36H36.1631C36.1631 35.7493 36.1107 35.5283 36.0059 35.3369C35.9056 35.1455 35.7529 34.9951 35.5479 34.8857C35.3428 34.7764 35.0853 34.7217 34.7754 34.7217C34.4746 34.7217 34.2217 34.7673 34.0166 34.8584C33.8115 34.9495 33.6566 35.0726 33.5518 35.2275C33.4469 35.3779 33.3945 35.5443 33.3945 35.7266C33.3945 35.877 33.4355 36.0137 33.5176 36.1367C33.6042 36.2552 33.7249 36.3669 33.8799 36.4717C34.0394 36.5765 34.2308 36.6768 34.4541 36.7725C34.682 36.8682 34.9372 36.9616 35.2197 37.0527C35.7484 37.2214 36.2178 37.4105 36.6279 37.6201C37.0426 37.8252 37.3913 38.0599 37.6738 38.3242C37.9609 38.584 38.1774 38.8802 38.3232 39.2129C38.4736 39.5456 38.5488 39.9215 38.5488 40.3408C38.5488 40.7874 38.4622 41.1839 38.2891 41.5303C38.1159 41.8766 37.8675 42.1706 37.5439 42.4121C37.2204 42.6491 36.833 42.8291 36.3818 42.9521C35.9307 43.0752 35.4271 43.1367 34.8711 43.1367C34.3607 43.1367 33.8571 43.0729 33.3604 42.9453C32.8682 42.8132 32.4215 42.6126 32.0205 42.3438C31.6195 42.0703 31.2982 41.7217 31.0566 41.2979C30.8197 40.8695 30.7012 40.3613 30.7012 39.7734H33.1074C33.1074 40.0651 33.1462 40.3112 33.2236 40.5117C33.3011 40.7122 33.415 40.874 33.5654 40.9971C33.7158 41.1156 33.9004 41.2021 34.1191 41.2568C34.3379 41.307 34.5885 41.332 34.8711 41.332C35.1764 41.332 35.4225 41.2887 35.6094 41.2021C35.7962 41.111 35.9329 40.9925 36.0195 40.8467C36.1061 40.6963 36.1494 40.5322 36.1494 40.3545ZM45.4463 39.6299H47.8389C47.807 40.3226 47.6201 40.9333 47.2783 41.4619C46.9365 41.9906 46.4626 42.403 45.8564 42.6992C45.2549 42.9909 44.5439 43.1367 43.7236 43.1367C43.0583 43.1367 42.4635 43.0251 41.9395 42.8018C41.4199 42.5785 40.9779 42.2572 40.6133 41.8379C40.2533 41.4186 39.9775 40.9105 39.7861 40.3135C39.5993 39.7165 39.5059 39.0443 39.5059 38.2969V37.7568C39.5059 37.0094 39.6038 36.3372 39.7998 35.7402C40.0003 35.1387 40.2829 34.6283 40.6475 34.209C41.0166 33.7852 41.4587 33.4616 41.9736 33.2383C42.4886 33.015 43.0605 32.9033 43.6895 32.9033C44.5553 32.9033 45.2868 33.0583 45.8838 33.3682C46.4808 33.6781 46.9434 34.1042 47.2715 34.6465C47.5996 35.1842 47.7933 35.7972 47.8525 36.4854H45.46C45.4508 36.1117 45.387 35.7995 45.2686 35.5488C45.1501 35.2936 44.9632 35.1022 44.708 34.9746C44.4528 34.847 44.1133 34.7832 43.6895 34.7832C43.3932 34.7832 43.1357 34.8379 42.917 34.9473C42.6982 35.0566 42.516 35.2298 42.3701 35.4668C42.2243 35.7038 42.1149 36.0114 42.042 36.3896C41.9736 36.7633 41.9395 37.2145 41.9395 37.7432V38.2969C41.9395 38.8255 41.9714 39.2767 42.0352 39.6504C42.099 40.0241 42.2015 40.3294 42.3428 40.5664C42.484 40.8034 42.6663 40.9788 42.8896 41.0928C43.1175 41.2021 43.3955 41.2568 43.7236 41.2568C44.0882 41.2568 44.3958 41.1999 44.6465 41.0859C44.8971 40.9674 45.0908 40.7897 45.2275 40.5527C45.3643 40.3112 45.4372 40.0036 45.4463 39.6299ZM55.6797 36.998V38.8438H50.5732V36.998H55.6797ZM51.373 33.0469V43H48.9736V33.0469H51.373ZM57.293 33.0469V43H54.9004V33.0469H57.293ZM67.2393 37.8252V38.2285C67.2393 38.9896 67.1322 39.6732 66.918 40.2793C66.7083 40.8809 66.4098 41.3958 66.0225 41.8242C65.6351 42.248 65.1771 42.5739 64.6484 42.8018C64.1198 43.0251 63.5365 43.1367 62.8984 43.1367C62.2559 43.1367 61.668 43.0251 61.1348 42.8018C60.6061 42.5739 60.1458 42.248 59.7539 41.8242C59.3665 41.3958 59.0658 40.8809 58.8516 40.2793C58.6419 39.6732 58.5371 38.9896 58.5371 38.2285V37.8252C58.5371 37.0641 58.6419 36.3805 58.8516 35.7744C59.0658 35.1683 59.3643 34.6533 59.7471 34.2295C60.1344 33.8011 60.5924 33.4753 61.1211 33.252C61.6543 33.0241 62.2422 32.9102 62.8848 32.9102C63.5228 32.9102 64.1061 33.0241 64.6348 33.252C65.168 33.4753 65.6283 33.8011 66.0156 34.2295C66.403 34.6533 66.7038 35.1683 66.918 35.7744C67.1322 36.3805 67.2393 37.0641 67.2393 37.8252ZM64.8057 38.2285V37.8115C64.8057 37.3193 64.7624 36.8864 64.6758 36.5127C64.5938 36.1344 64.4707 35.8177 64.3066 35.5625C64.1426 35.3073 63.9398 35.1159 63.6982 34.9883C63.4613 34.8561 63.1901 34.79 62.8848 34.79C62.5658 34.79 62.2878 34.8561 62.0508 34.9883C61.8138 35.1159 61.6156 35.3073 61.4561 35.5625C61.2965 35.8177 61.1758 36.1344 61.0938 36.5127C61.0163 36.8864 60.9775 37.3193 60.9775 37.8115V38.2285C60.9775 38.7161 61.0163 39.1491 61.0938 39.5273C61.1758 39.901 61.2965 40.2178 61.4561 40.4775C61.6201 40.7373 61.8206 40.9333 62.0576 41.0654C62.2992 41.1976 62.5794 41.2637 62.8984 41.2637C63.2038 41.2637 63.4749 41.1976 63.7119 41.0654C63.9489 40.9333 64.1471 40.7373 64.3066 40.4775C64.4707 40.2178 64.5938 39.901 64.6758 39.5273C64.7624 39.1491 64.8057 38.7161 64.8057 38.2285ZM76.9053 37.8252V38.2285C76.9053 38.9896 76.7982 39.6732 76.584 40.2793C76.3743 40.8809 76.0758 41.3958 75.6885 41.8242C75.3011 42.248 74.8431 42.5739 74.3145 42.8018C73.7858 43.0251 73.2025 43.1367 72.5645 43.1367C71.9219 43.1367 71.334 43.0251 70.8008 42.8018C70.2721 42.5739 69.8118 42.248 69.4199 41.8242C69.0326 41.3958 68.7318 40.8809 68.5176 40.2793C68.3079 39.6732 68.2031 38.9896 68.2031 38.2285V37.8252C68.2031 37.0641 68.3079 36.3805 68.5176 35.7744C68.7318 35.1683 69.0303 34.6533 69.4131 34.2295C69.8005 33.8011 70.2585 33.4753 70.7871 33.252C71.3203 33.0241 71.9082 32.9102 72.5508 32.9102C73.1888 32.9102 73.7721 33.0241 74.3008 33.252C74.834 33.4753 75.2943 33.8011 75.6816 34.2295C76.069 34.6533 76.3698 35.1683 76.584 35.7744C76.7982 36.3805 76.9053 37.0641 76.9053 37.8252ZM74.4717 38.2285V37.8115C74.4717 37.3193 74.4284 36.8864 74.3418 36.5127C74.2598 36.1344 74.1367 35.8177 73.9727 35.5625C73.8086 35.3073 73.6058 35.1159 73.3643 34.9883C73.1273 34.8561 72.8561 34.79 72.5508 34.79C72.2318 34.79 71.9538 34.8561 71.7168 34.9883C71.4798 35.1159 71.2816 35.3073 71.1221 35.5625C70.9626 35.8177 70.8418 36.1344 70.7598 36.5127C70.6823 36.8864 70.6436 37.3193 70.6436 37.8115V38.2285C70.6436 38.7161 70.6823 39.1491 70.7598 39.5273C70.8418 39.901 70.9626 40.2178 71.1221 40.4775C71.2861 40.7373 71.4867 40.9333 71.7236 41.0654C71.9652 41.1976 72.2454 41.2637 72.5645 41.2637C72.8698 41.2637 73.141 41.1976 73.3779 41.0654C73.6149 40.9333 73.8132 40.7373 73.9727 40.4775C74.1367 40.2178 74.2598 39.901 74.3418 39.5273C74.4284 39.1491 74.4717 38.7161 74.4717 38.2285ZM84.7256 41.1543V43H79.6943V41.1543H84.7256ZM80.5488 33.0469V43H78.1494V33.0469H80.5488Z" fill="black"/>
</svg>
